<?xml version="1.0" encoding="UTF-8"?>
<svg width="150" height="50" viewBox="0 0 150 50" xmlns="http://www.w3.org/2000/svg">
  <style>
    .logo-text { font-family: Arial, sans-serif; font-weight: bold; }
    .primary { fill: #2a5298; }
    .secondary { fill: #ff9e1b; }
  </style>
  
  <!-- Stylized fig icon -->
  <path class="secondary" d="M25,12 C29,12 32,15 32,19 C32,22 30,25 27,26 C31,27 35,30 35,38 C31,36 25,36 20,40 C15,36 9,36 5,38 C5,30 9,27 13,26 C10,25 8,22 8,19 C8,15 11,12 15,12 Z" />
  <path class="primary" d="M15,12 C19,12 22,15 22,19 C22,22 20,25 17,26 C21,27 25,30 25,38 C21,36 15,36 10,40 L10,26 C7,25 5,22 5,19 C5,15 8,12 12,12 Z" />
  
  <!-- FIGS text -->
  <text x="45" y="30" class="logo-text primary" font-size="20">FIGS</text>
  <text x="90" y="30" class="logo-text secondary" font-size="16">Dubai</text>
</svg> 